<?xml version="1.0" encoding="UTF-8"?>
<svg id="Camada_1" xmlns="http://www.w3.org/2000/svg" viewBox="0 0 1080 1080">
  <defs>
    <style>
      .cls-1 {
        fill: #010202;
      }
    </style>
  </defs>
  <path class="cls-1" d="M139.91,1.01C75.92,9.63,24.7,53.7,5.36,116.52.3,133.47,0,152.84,0,476.73v342.35l7.15,22.02c8.92,26.79,25.02,51.81,45.84,70.56,15.78,14.28,49.72,32.44,66.09,35.73,8.63,1.5,10.12,3.56,15.78,21.73,17.28,52.99,62.82,94.96,115.8,105.97,30.67,6.54,678.16,6.54,705.86,0,56.57-13.39,104.79-61.32,118.19-117.89,6.54-27.7,6.54-675.19,0-706.15-11.01-52.99-52.99-98.55-105.97-115.8-18.16-5.65-20.25-7.15-21.73-15.78-3.27-17.28-21.73-50.6-37.21-67.58-18.75-20.55-38.12-33.35-66.38-43.47l-21.73-8.04L485.28.08C300.42-.22,145,.37,139.94.96l-.02.04ZM972.59,207.01c15.48,9.83,26.2,22.93,35.73,43.77l6.86,14.6v675.78l-7.74,16.37c-11.01,23.81-24.11,37.21-46.74,48.22l-19.95,9.83H264.96l-14.6-6.86c-8.33-3.56-19.34-10.12-25.02-14.6-10.42-7.74-27.38-31.85-27.38-38.71,0-3.27,56.87-3.86,309.02-3.86,340.58,0,325.39.89,362.01-18.75,23.22-12.21,51.19-40.18,63.41-63.41,19.64-36.62,18.75-21.43,18.75-362.01,0-252.15.59-309.02,3.86-309.02,2.09,0,10.12,3.86,17.57,8.63v.02ZM568.62,260.9c56.87,14.28,123.55,57.46,128.31,82.77,2.38,12.8-4.77,27.99-15.48,33.05-15.48,7.15-26.49,4.18-44.95-11.6-30.67-26.79-82.16-47.33-117.6-47.63h-11.31v134.56c0,143.2-.59,150.33-14.89,177.74-3.56,7.45-13.1,20.25-21.14,28.58-61.32,64.91-165.52,48.22-205.41-32.74-9.53-19.95-10.12-22.02-10.12-53.58s.3-33.64,11.01-55.37c28.29-56.87,91.1-84.25,150.33-65.5,11.01,3.56,22.02,7.45,24.11,8.04,2.68,1.5,3.56-18.16,3.56-92.28v-93.78l6.86-8.04c4.77-5.36,11.6-8.92,20.25-10.42,20.55-3.56,70.26-.59,96.46,6.24v-.04Z"/>
</svg>