<?xml version="1.0" encoding="UTF-8"?>
<svg id="Camada_1" xmlns="http://www.w3.org/2000/svg" viewBox="0 0 1080 1080">
  <defs>
    <style>
      .cls-1 {
        fill: #010202;
      }
    </style>
  </defs>
  <path class="cls-1" d="M239.37,2.39c-61.13,4.3-97.67,12.42-132.43,29.17C59.5,54.38,29.82,92.69,15.1,150.55,1.66,203.33,1.41,208.14.37,509.53c-1.27,322.7,0,359.99,14.72,419.86,2.78,11.16,10.4,31.2,16.75,44.4,9.39,19.79,15.23,27.65,30.95,43.39,39.07,38.81,84.48,53.79,183.41,60.62,57.08,4.05,592.36,2.03,624.85-2.28,73.07-9.64,113.91-26.14,146.12-58.35,38.81-39.07,53.79-84.48,60.62-183.41,4.05-57.08,2.03-592.36-2.28-624.85-8.88-67.73-25.88-112.14-53.79-141.82-38.56-41.34-86.25-57.84-186.22-64.95-41.6-3.04-554.56-2.78-596.18.25l.04-.02ZM583.63,307.58c72.31,13.94,134.96,61.38,167.44,127.09,18.77,37.8,21.81,58.6,9.39,67.99-6.1,4.3-7.87,4.56-15.99,1.77-10.91-3.54-10.4-2.78-19.53-28.41-22.82-64.7-72.31-109.6-139.28-126.59-30.69-7.87-75.85-6.1-106.04,4.05-36.79,12.42-70.26,36.03-93.11,65.71-12.42,16.5-30.44,49.47-28.16,51.74.76.51,3.29-.25,6.1-1.77,9.64-5.08,22.57-3.29,28.16,3.8,6.35,8.12,6.86,15.48,1.27,23.33-5.08,7.36-62.16,36.03-71.55,36.03-9.89,0-15.48-6.86-31.96-39.83-18.01-36.03-18.52-47.95-2.28-53.28,10.15-3.54,19.03-.51,25.12,8.63l5.34,8.12,7.36-15.74c32.46-68.75,92.6-115.68,168.71-132.43,21.3-4.56,65.71-4.83,89.04-.25l-.02.04ZM770.1,553.15c7.87,8.63,33.75,61.91,33.75,69.25,0,9.13-10.65,19.03-20.29,19.03-8.12,0-20.29-9.39-20.29-15.74,0-1.77-5.59,7.11-12.17,19.53-14.98,28.67-25.88,43.64-47.95,64.95-20.29,19.79-41.85,35.02-64.95,45.42-112.39,50.98-243.3,7.87-304.94-100.22-12.93-22.82-24.87-57.33-22.57-65.71,2.28-9.13,10.4-15.23,20.04-15.23,11.67,0,17.25,5.84,22.57,23.08,26.14,82.96,100.22,137.77,186.72,137.77,61.13,0,117.2-27.4,153.48-74.84,13.18-17.51,30.69-48.96,28.41-51.24-.76-.51-3.54,0-6.35,1.52-13.69,7.36-33.5-1.77-33.5-15.48,0-10.65,7.61-17.25,37.55-32.46,32.72-16.5,42.36-18.27,50.48-9.64v.02Z"/>
</svg>