<?xml version="1.0" encoding="UTF-8"?>
<svg id="Camada_1" xmlns="http://www.w3.org/2000/svg" viewBox="0 0 1080 1080">
  <defs>
    <style>
      .cls-1 {
        fill: #010202;
      }
    </style>
  </defs>
  <path class="cls-1" d="M241.01,1.52C137.69,15.04,47.04,89.84,13.86,188.94-.71,232.89.13,211.13.13,540.12s-.85,307.02,13.95,351.81c26.84,80.29,94.03,147.28,174.74,174.32,43.95,14.58,22.19,13.73,351.18,13.73s307.02.85,351.81-13.95c80.29-26.84,147.28-94.03,174.32-174.74,14.58-43.95,13.73-22.19,13.73-351.18s.85-307.23-13.73-351.18c-27.05-80.72-94.03-147.91-174.32-174.74C847.23-.59,872.59.46,548.45.04,383-.17,249.46.46,241.01,1.52h0ZM566.41,258.25c5.92,1.48,14.58,5.49,19.23,8.66,17.75,12.04,262.01,218.06,265.6,224.19,9.51,16.27,6.13,38.46-7.82,52.4-9.93,10.14-19.65,13.52-38.67,13.52h-13.31v116c0,80.93-.63,117.9-2.32,122.98-3.8,10.78-11.62,20.5-21.55,25.78-8.66,4.44-11.2,4.65-75.86,5.28l-67.19.63v-72.48c0-39.94-.85-78.39-1.9-85.58-4.23-28.31-21.34-52.4-46.49-64.66-13.1-6.34-15.42-6.76-36.13-6.76s-23.45.63-34.23,5.92c-26.62,13.1-44.16,36.77-48.18,65.08-1.06,7.4-2.11,46.06-2.11,86v72.48l-66.98-.63c-64.87-.63-67.4-.85-76.07-5.28-9.93-5.28-17.75-15-21.55-25.78-1.69-5.07-2.32-42.05-2.32-122.98v-116h-13.1c-17.96,0-26.84-2.75-36.98-11.62-16.9-14.37-20.07-39.3-7.61-56.63,9.09-12.26,259.05-220.17,272.36-226.51,19.86-9.3,39.72-10.78,63.18-4.01h0Z"/>
</svg>