<?xml version="1.0" encoding="UTF-8"?>
<svg id="Camada_1" xmlns="http://www.w3.org/2000/svg" viewBox="0 0 1080 1080">
  <defs>
    <style>
      .cls-1 {
        fill: #010202;
      }
    </style>
  </defs>
  <path class="cls-1" d="M213.5,2.84C121.29,19.78,43.48,86.87,13.28,175.74-.44,216.28,0,205.29,0,539.85s-.46,323.59,13.51,365.04c13.51,39.38,35.01,72.81,67.04,103.5,39.35,37.78,88.56,62.06,140.26,69.61,13.28,1.84,105.95,2.3,330.63,1.84l312.32-.7,22.89-6.41c85.12-24.05,152.17-86.57,179.84-168.09,13.95-41.22,13.51-29.76,13.51-364.81s.23-323.8-12.81-362.97c-22.42-67.33-71.85-122.74-137.05-153.66-11.91-5.72-31.57-13.06-43.94-16.49l-22.42-6.18L546.85.05c-253.08-.23-320.12.23-333.37,2.74l.02.04ZM592.65,184.66c8.91,6.41,10.52,13.96,7.1,32.97-10.75,60.45-13.05,114.05-6.41,145.42,6.87,31.83,21.29,54.5,40.95,64.8,10.52,5.27,14.18,5.51,26.09,0,13.28-5.95,25.16-19.24,33.87-38.01,8.91-18.77,13.95-23.81,24.49-25.42,16.48-2.51,18.76.91,54.69,79.46,36.61,80.15,45.99,106.27,51.26,141.98,20.36,137.63-52.63,255.33-184.87,298.62-32.73,10.76-62.7,15.12-100.68,15.33-38.21,0-66.14-4.35-99.08-15.33-72.31-24.05-126.54-70.3-159.71-136.26-26.32-52.44-39.14-117.02-37.3-189.61l.7-32.97,7.55-6.64c8.01-7.11,17.62-8.71,26.32-3.9,2.74,1.37,15.32,10.76,27.69,20.61,12.35,9.85,23.33,17.87,24.26,17.87s2.3-14.2,2.97-31.6c1.6-34.8,7.55-74.88,16.25-108.08,30.2-115.89,96.78-193.74,192.44-225.11,34.33-11.45,40.51-11.92,51.49-4.11h-.06Z"/>
</svg>